<mxfile host="65bd71144e">
    <diagram name="arch-heavy" id="PDK9y_y3-ytOsai0yT0N">
        <mxGraphModel dx="2808" dy="1404" grid="1" gridSize="10" guides="1" tooltips="1" connect="1" arrows="1" fold="1" page="1" pageScale="1" pageWidth="1700" pageHeight="1100" math="0" shadow="0" adaptiveColors="auto">
            <root>
                <mxCell id="0"/>
                <mxCell id="1" parent="0"/>
                <mxCell id="2" value="Metadata" style="whiteSpace=wrap;strokeWidth=2;" parent="1" vertex="1">
                    <mxGeometry x="2111" y="1528" width="824" height="128" as="geometry"/>
                </mxCell>
                <mxCell id="4" value="Backend" style="whiteSpace=wrap;strokeWidth=2;" parent="1" vertex="1">
                    <mxGeometry x="500" y="751" width="1489" height="740" as="geometry"/>
                </mxCell>
                <mxCell id="5" value="Frontend" style="whiteSpace=wrap;strokeWidth=2;" parent="1" vertex="1">
                    <mxGeometry x="1150" y="470" width="293" height="208" as="geometry"/>
                </mxCell>
                <mxCell id="6" value="React Interface" style="whiteSpace=wrap;strokeWidth=2;" parent="1" vertex="1">
                    <mxGeometry x="1211" y="599" width="170" height="54" as="geometry"/>
                </mxCell>
                <mxCell id="W-3FfWm-bmC5kGnzl7WA-70" style="edgeStyle=orthogonalEdgeStyle;rounded=0;orthogonalLoop=1;jettySize=auto;html=1;exitX=1;exitY=0.5;exitDx=0;exitDy=0;entryX=0;entryY=0.5;entryDx=0;entryDy=0;curved=1;" parent="1" source="7" target="W-3FfWm-bmC5kGnzl7WA-66" edge="1">
                    <mxGeometry relative="1" as="geometry"/>
                </mxCell>
                <mxCell id="7" value="RabbitMQ Pub/Sub" style="whiteSpace=wrap;strokeWidth=2;" parent="1" vertex="1">
                    <mxGeometry x="1199" y="776" width="194" height="54" as="geometry"/>
                </mxCell>
                <mxCell id="8" value="Event Broker Service" style="whiteSpace=wrap;strokeWidth=2;" parent="1" vertex="1">
                    <mxGeometry x="2442" y="636" width="208" height="54" as="geometry"/>
                </mxCell>
                <mxCell id="9" value="Workflow Orchestrator" style="whiteSpace=wrap;strokeWidth=2;fillColor=#dae8fc;strokeColor=#6c8ebf;" parent="1" vertex="1">
                    <mxGeometry x="2435" y="740" width="223" height="54" as="geometry"/>
                </mxCell>
                <mxCell id="10" value="Camunda Process Server" style="whiteSpace=wrap;strokeWidth=2;fillColor=#dae8fc;strokeColor=#6c8ebf;" parent="1" vertex="1">
                    <mxGeometry x="1627" y="1134" width="234" height="54" as="geometry"/>
                </mxCell>
                <mxCell id="11" value="LLM Service" style="whiteSpace=wrap;strokeWidth=2;fillColor=#dae8fc;strokeColor=#6c8ebf;" parent="1" vertex="1">
                    <mxGeometry x="1196" y="1400" width="144" height="54" as="geometry"/>
                </mxCell>
                <mxCell id="12" value="MCP Server" style="whiteSpace=wrap;strokeWidth=2;" parent="1" vertex="1">
                    <mxGeometry x="667" y="1261" width="140" height="54" as="geometry"/>
                </mxCell>
                <mxCell id="13" value="Camunda Web Modeler" style="whiteSpace=wrap;strokeWidth=2;" parent="1" vertex="1">
                    <mxGeometry x="1185" y="495" width="223" height="54" as="geometry"/>
                </mxCell>
                <mxCell id="14" value="Docker Compose Stack" style="whiteSpace=wrap;strokeWidth=2;fillColor=#dae8fc;strokeColor=#6c8ebf;" parent="1" vertex="1">
                    <mxGeometry x="1170" y="1007" width="222" height="54" as="geometry"/>
                </mxCell>
                <mxCell id="15" value="Neo4j" style="whiteSpace=wrap;strokeWidth=2;fillColor=#dae8fc;strokeColor=#6c8ebf;" parent="1" vertex="1">
                    <mxGeometry x="742" y="1134" width="102" height="54" as="geometry"/>
                </mxCell>
                <mxCell id="16" value="Qdrand Vector Store" style="whiteSpace=wrap;strokeWidth=2;fillColor=#dae8fc;strokeColor=#6c8ebf;" parent="1" vertex="1">
                    <mxGeometry x="893" y="1134" width="205" height="54" as="geometry"/>
                </mxCell>
                <mxCell id="17" value="Minio Storage" style="whiteSpace=wrap;strokeWidth=2;" parent="1" vertex="1">
                    <mxGeometry x="1149" y="1134" width="157" height="54" as="geometry"/>
                </mxCell>
                <mxCell id="18" value="Context Thread Server" style="whiteSpace=wrap;strokeWidth=2;" parent="1" vertex="1">
                    <mxGeometry x="1356" y="1134" width="221" height="54" as="geometry"/>
                </mxCell>
                <mxCell id="19" value="Process Definitions" style="whiteSpace=wrap;strokeWidth=2;fillColor=#dae8fc;strokeColor=#6c8ebf;" parent="1" vertex="1">
                    <mxGeometry x="2449" y="867" width="194" height="54" as="geometry"/>
                </mxCell>
                <mxCell id="20" value="Decision Analysis Process" style="whiteSpace=wrap;strokeWidth=2;fillColor=#dae8fc;strokeColor=#6c8ebf;" parent="1" vertex="1">
                    <mxGeometry x="2294" y="994" width="237" height="54" as="geometry"/>
                </mxCell>
                <mxCell id="21" value="Analysis ID" style="whiteSpace=wrap;strokeWidth=2;fillColor=#dae8fc;strokeColor=#6c8ebf;" parent="1" vertex="1">
                    <mxGeometry x="2062" y="1133" width="136" height="54" as="geometry"/>
                </mxCell>
                <mxCell id="22" value="Capture Data: Input, Response, Results" style="whiteSpace=wrap;strokeWidth=2;fillColor=#dae8fc;strokeColor=#6c8ebf;" parent="1" vertex="1">
                    <mxGeometry x="2271" y="1121" width="260" height="78" as="geometry"/>
                </mxCell>
                <mxCell id="23" value="Vector Store" style="whiteSpace=wrap;strokeWidth=2;fillColor=#dae8fc;strokeColor=#6c8ebf;" parent="1" vertex="1">
                    <mxGeometry x="2138" y="1297" width="149" height="54" as="geometry"/>
                </mxCell>
                <mxCell id="24" value="GraphDB" style="whiteSpace=wrap;strokeWidth=2;fillColor=#dae8fc;strokeColor=#6c8ebf;" parent="1" vertex="1">
                    <mxGeometry x="2444" y="1297" width="122" height="54" as="geometry"/>
                </mxCell>
                <mxCell id="25" value="Context" style="whiteSpace=wrap;strokeWidth=2;fillColor=#dae8fc;strokeColor=#6c8ebf;" parent="1" vertex="1">
                    <mxGeometry x="2447" y="1424" width="116" height="54" as="geometry"/>
                </mxCell>
                <mxCell id="26" value="Meta-data for Artifacts" style="whiteSpace=wrap;strokeWidth=2;fillColor=#dae8fc;strokeColor=#6c8ebf;" parent="1" vertex="1">
                    <mxGeometry x="2146" y="1565" width="224" height="54" as="geometry"/>
                </mxCell>
                <mxCell id="27" value="File References" style="whiteSpace=wrap;strokeWidth=2;fillColor=#dae8fc;strokeColor=#6c8ebf;" parent="1" vertex="1">
                    <mxGeometry x="2420" y="1565" width="170" height="54" as="geometry"/>
                </mxCell>
                <mxCell id="28" value="Supplementary Decision Context" style="whiteSpace=wrap;strokeWidth=2;fillColor=#dae8fc;strokeColor=#6c8ebf;" parent="1" vertex="1">
                    <mxGeometry x="2640" y="1553" width="260" height="78" as="geometry"/>
                </mxCell>
                <mxCell id="29" value="Workflow Feedback Loop" style="whiteSpace=wrap;strokeWidth=2;fillColor=#dae8fc;strokeColor=#6c8ebf;" parent="1" vertex="1">
                    <mxGeometry x="2160" y="867" width="239" height="54" as="geometry"/>
                </mxCell>
                <mxCell id="30" value="Summary Document" style="whiteSpace=wrap;strokeWidth=2;fillColor=#dae8fc;strokeColor=#6c8ebf;" parent="1" vertex="1">
                    <mxGeometry x="2651" y="1133" width="203" height="54" as="geometry"/>
                </mxCell>
                <mxCell id="31" value="White Paper Results" style="whiteSpace=wrap;strokeWidth=2;fillColor=#dae8fc;strokeColor=#6c8ebf;" parent="1" vertex="1">
                    <mxGeometry x="2651" y="1297" width="202" height="54" as="geometry"/>
                </mxCell>
                <mxCell id="32" value="Publish/Subscribe" style="curved=1;startArrow=none;endArrow=block;exitX=0.5;exitY=1;entryX=0.5;entryY=0;" parent="1" source="6" target="7" edge="1">
                    <mxGeometry relative="1" as="geometry">
                        <Array as="points"/>
                    </mxGeometry>
                </mxCell>
                <mxCell id="33" value="Message Broker" style="curved=1;startArrow=none;endArrow=block;exitX=0.5;exitY=1;entryX=0;entryY=0.4;" parent="1" source="7" target="8" edge="1">
                    <mxGeometry relative="1" as="geometry">
                        <Array as="points">
                            <mxPoint x="1296" y="867"/>
                        </Array>
                    </mxGeometry>
                </mxCell>
                <mxCell id="34" value="" style="curved=1;startArrow=none;endArrow=block;exitX=0.5;exitY=1;entryX=0.5;entryY=0;" parent="1" source="8" target="9" edge="1">
                    <mxGeometry relative="1" as="geometry">
                        <Array as="points"/>
                    </mxGeometry>
                </mxCell>
                <mxCell id="35" value="" style="curved=1;startArrow=none;endArrow=block;exitX=0;exitY=0.68;entryX=0.62;entryY=0;" parent="1" source="9" target="10" edge="1">
                    <mxGeometry relative="1" as="geometry">
                        <Array as="points">
                            <mxPoint x="1810" y="1098"/>
                        </Array>
                    </mxGeometry>
                </mxCell>
                <mxCell id="36" value="" style="curved=1;startArrow=none;endArrow=block;exitX=0.81;exitY=1;entryX=1;entryY=0.34;" parent="1" source="10" target="11" edge="1">
                    <mxGeometry relative="1" as="geometry">
                        <Array as="points">
                            <mxPoint x="1916" y="1225"/>
                            <mxPoint x="1916" y="1352"/>
                        </Array>
                    </mxGeometry>
                </mxCell>
                <mxCell id="37" value="" style="curved=1;startArrow=none;endArrow=block;exitX=0.5;exitY=1;entryX=1;entryY=0.42;" parent="1" source="10" target="12" edge="1">
                    <mxGeometry relative="1" as="geometry">
                        <Array as="points">
                            <mxPoint x="1744" y="1225"/>
                        </Array>
                    </mxGeometry>
                </mxCell>
                <mxCell id="38" value="" style="curved=1;startArrow=none;endArrow=block;exitX=0.5;exitY=1;entryX=0.5;entryY=0;" parent="1" source="13" target="6" edge="1">
                    <mxGeometry relative="1" as="geometry">
                        <Array as="points"/>
                    </mxGeometry>
                </mxCell>
                <mxCell id="39" value="" style="curved=1;startArrow=none;endArrow=block;exitX=1;exitY=0.89;entryX=0.27;entryY=0;" parent="1" source="14" target="10" edge="1">
                    <mxGeometry relative="1" as="geometry">
                        <Array as="points">
                            <mxPoint x="1615" y="1098"/>
                        </Array>
                    </mxGeometry>
                </mxCell>
                <mxCell id="40" value="" style="curved=1;startArrow=none;endArrow=block;exitX=0;exitY=0.77;entryX=0.5;entryY=0;" parent="1" source="14" target="15" edge="1">
                    <mxGeometry relative="1" as="geometry">
                        <Array as="points">
                            <mxPoint x="793" y="1098"/>
                        </Array>
                    </mxGeometry>
                </mxCell>
                <mxCell id="41" value="" style="curved=1;startArrow=none;endArrow=block;exitX=0;exitY=0.96;entryX=0.5;entryY=0;" parent="1" source="14" target="16" edge="1">
                    <mxGeometry relative="1" as="geometry">
                        <Array as="points">
                            <mxPoint x="996" y="1098"/>
                        </Array>
                    </mxGeometry>
                </mxCell>
                <mxCell id="42" value="" style="curved=1;startArrow=none;endArrow=block;exitX=0.4;exitY=1;entryX=0.5;entryY=0;" parent="1" source="14" target="17" edge="1">
                    <mxGeometry relative="1" as="geometry">
                        <Array as="points">
                            <mxPoint x="1227" y="1098"/>
                        </Array>
                    </mxGeometry>
                </mxCell>
                <mxCell id="43" value="" style="curved=1;startArrow=none;endArrow=block;exitX=1;exitY=0.71;entryX=1;entryY=0.34;" parent="1" source="14" target="11" edge="1">
                    <mxGeometry relative="1" as="geometry">
                        <Array as="points">
                            <mxPoint x="1896" y="1098"/>
                            <mxPoint x="1896" y="1352"/>
                        </Array>
                    </mxGeometry>
                </mxCell>
                <mxCell id="44" value="" style="curved=1;startArrow=none;endArrow=block;exitX=0;exitY=0.73;entryX=0.41;entryY=0;" parent="1" source="14" target="12" edge="1">
                    <mxGeometry relative="1" as="geometry">
                        <Array as="points">
                            <mxPoint x="707" y="1098"/>
                            <mxPoint x="707" y="1225"/>
                        </Array>
                    </mxGeometry>
                </mxCell>
                <mxCell id="45" value="" style="curved=1;startArrow=none;endArrow=block;exitX=0.85;exitY=1;entryX=0.5;entryY=0;" parent="1" source="14" target="18" edge="1">
                    <mxGeometry relative="1" as="geometry">
                        <Array as="points">
                            <mxPoint x="1466" y="1098"/>
                        </Array>
                    </mxGeometry>
                </mxCell>
                <mxCell id="46" value="External Data Analysis" style="curved=1;startArrow=none;endArrow=block;exitX=0.5;exitY=1;entryX=0;entryY=0.31;" parent="1" source="12" target="11" edge="1">
                    <mxGeometry relative="1" as="geometry">
                        <Array as="points">
                            <mxPoint x="737" y="1352"/>
                        </Array>
                    </mxGeometry>
                </mxCell>
                <mxCell id="47" value="Service Task" style="curved=1;startArrow=none;endArrow=block;exitX=0;exitY=0.62;entryX=0;entryY=0.36;" parent="1" source="10" target="11" edge="1">
                    <mxGeometry relative="1" as="geometry">
                        <Array as="points">
                            <mxPoint x="566" y="1225"/>
                            <mxPoint x="566" y="1352"/>
                        </Array>
                    </mxGeometry>
                </mxCell>
                <mxCell id="48" value="Service Task" style="curved=1;startArrow=none;endArrow=block;exitX=0;exitY=0.62;entryX=0.21;entryY=0;" parent="1" source="10" target="12" edge="1">
                    <mxGeometry relative="1" as="geometry">
                        <Array as="points">
                            <mxPoint x="641" y="1225"/>
                        </Array>
                    </mxGeometry>
                </mxCell>
                <mxCell id="49" value="Contains" style="curved=1;startArrow=none;endArrow=block;exitX=0.5;exitY=1;entryX=0.5;entryY=0;" parent="1" source="9" target="19" edge="1">
                    <mxGeometry relative="1" as="geometry">
                        <Array as="points"/>
                    </mxGeometry>
                </mxCell>
                <mxCell id="50" value="Start New Process" style="curved=1;startArrow=none;endArrow=block;exitX=0.5;exitY=1;entryX=0.74;entryY=0;" parent="1" source="19" target="20" edge="1">
                    <mxGeometry relative="1" as="geometry">
                        <Array as="points">
                            <mxPoint x="2546" y="958"/>
                        </Array>
                    </mxGeometry>
                </mxCell>
                <mxCell id="51" value="Generate Analysis ID" style="curved=1;startArrow=none;endArrow=block;exitX=0;exitY=0.99;entryX=0.5;entryY=0;" parent="1" source="20" target="21" edge="1">
                    <mxGeometry relative="1" as="geometry">
                        <Array as="points">
                            <mxPoint x="2130" y="1085"/>
                        </Array>
                    </mxGeometry>
                </mxCell>
                <mxCell id="52" value="Capture Metadata" style="curved=1;startArrow=none;endArrow=block;exitX=0.48;exitY=1;entryX=0.5;entryY=0;" parent="1" source="20" target="22" edge="1">
                    <mxGeometry relative="1" as="geometry">
                        <Array as="points">
                            <mxPoint x="2401" y="1085"/>
                        </Array>
                    </mxGeometry>
                </mxCell>
                <mxCell id="53" value="Store in" style="curved=1;startArrow=none;endArrow=block;exitX=0.06;exitY=1;entryX=0.5;entryY=0;" parent="1" source="22" target="23" edge="1">
                    <mxGeometry relative="1" as="geometry">
                        <Array as="points">
                            <mxPoint x="2212" y="1224"/>
                        </Array>
                    </mxGeometry>
                </mxCell>
                <mxCell id="54" value="Store in" style="curved=1;startArrow=none;endArrow=block;exitX=0.74;exitY=1;entryX=0.5;entryY=0;" parent="1" source="22" target="24" edge="1">
                    <mxGeometry relative="1" as="geometry">
                        <Array as="points">
                            <mxPoint x="2505" y="1224"/>
                        </Array>
                    </mxGeometry>
                </mxCell>
                <mxCell id="55" value="Reference Data" style="curved=1;startArrow=none;endArrow=block;exitX=0.5;exitY=1;entryX=0.5;entryY=0;" parent="1" source="24" target="25" edge="1">
                    <mxGeometry relative="1" as="geometry">
                        <Array as="points"/>
                    </mxGeometry>
                </mxCell>
                <mxCell id="56" value="" style="curved=1;startArrow=none;endArrow=block;exitX=0;exitY=0.73;entryX=0.5;entryY=0;" parent="1" source="25" target="26" edge="1">
                    <mxGeometry relative="1" as="geometry">
                        <Array as="points">
                            <mxPoint x="2258" y="1503"/>
                        </Array>
                    </mxGeometry>
                </mxCell>
                <mxCell id="57" value="" style="curved=1;startArrow=none;endArrow=block;exitX=0.5;exitY=1;entryX=0.5;entryY=0;" parent="1" source="25" target="27" edge="1">
                    <mxGeometry relative="1" as="geometry">
                        <Array as="points"/>
                    </mxGeometry>
                </mxCell>
                <mxCell id="58" value="" style="curved=1;startArrow=none;endArrow=block;exitX=1;exitY=0.71;entryX=0.5;entryY=0;" parent="1" source="25" target="28" edge="1">
                    <mxGeometry relative="1" as="geometry">
                        <Array as="points">
                            <mxPoint x="2770" y="1503"/>
                        </Array>
                    </mxGeometry>
                </mxCell>
                <mxCell id="59" value="" style="curved=1;startArrow=none;endArrow=block;exitX=0.66;exitY=1;entryX=0.42;entryY=0;" parent="1" source="29" target="20" edge="1">
                    <mxGeometry relative="1" as="geometry">
                        <Array as="points">
                            <mxPoint x="2369" y="958"/>
                        </Array>
                    </mxGeometry>
                </mxCell>
                <mxCell id="60" value="Re-run Task" style="curved=1;startArrow=none;endArrow=block;exitX=0.15;exitY=1;entryX=0;entryY=0.08;" parent="1" source="29" target="20" edge="1">
                    <mxGeometry relative="1" as="geometry">
                        <Array as="points">
                            <mxPoint x="2082" y="958"/>
                        </Array>
                    </mxGeometry>
                </mxCell>
                <mxCell id="61" value="" style="curved=1;startArrow=none;endArrow=block;exitX=0.5;exitY=1;entryX=0.5;entryY=0;" parent="1" source="30" target="31" edge="1">
                    <mxGeometry relative="1" as="geometry">
                        <Array as="points"/>
                    </mxGeometry>
                </mxCell>
                <mxCell id="62" value="" style="curved=1;startArrow=none;endArrow=block;exitX=1;exitY=0.91;entryX=0.5;entryY=0;" parent="1" source="20" target="30" edge="1">
                    <mxGeometry relative="1" as="geometry">
                        <Array as="points">
                            <mxPoint x="2752" y="1085"/>
                        </Array>
                    </mxGeometry>
                </mxCell>
                <mxCell id="W-3FfWm-bmC5kGnzl7WA-66" value="Digital Contract Engine???" style="rounded=0;whiteSpace=wrap;html=1;" parent="1" vertex="1">
                    <mxGeometry x="2486" y="495" width="120" height="60" as="geometry"/>
                </mxCell>
            </root>
        </mxGraphModel>
    </diagram>
    <diagram id="Y4qivJZAiA-LmlQWcE4c" name="arch-lite">
        <mxGraphModel dx="1211" dy="702" grid="1" gridSize="10" guides="1" tooltips="1" connect="1" arrows="1" fold="1" page="1" pageScale="1" pageWidth="850" pageHeight="1100" math="0" shadow="0">
            <root>
                <mxCell id="0"/>
                <mxCell id="1" parent="0"/>
                <mxCell id="LsxEzGCyYxM6EnhoBOPR-1" value="Backend" style="whiteSpace=wrap;strokeWidth=2;" parent="1" vertex="1">
                    <mxGeometry x="210" y="320" width="1010" height="310" as="geometry"/>
                </mxCell>
                <mxCell id="lldGQx17l16skEtl4_07-1" value="Camunda Process Server" style="whiteSpace=wrap;strokeWidth=2;" parent="1" vertex="1">
                    <mxGeometry x="930" y="480" width="234" height="54" as="geometry"/>
                </mxCell>
                <mxCell id="LsxEzGCyYxM6EnhoBOPR-4" style="edgeStyle=orthogonalEdgeStyle;curved=1;html=1;entryX=0.5;entryY=0;entryDx=0;entryDy=0;" parent="1" source="lldGQx17l16skEtl4_07-2" target="lldGQx17l16skEtl4_07-3" edge="1">
                    <mxGeometry relative="1" as="geometry"/>
                </mxCell>
                <mxCell id="LsxEzGCyYxM6EnhoBOPR-5" style="edgeStyle=orthogonalEdgeStyle;curved=1;html=1;exitX=0.25;exitY=1;exitDx=0;exitDy=0;entryX=0.5;entryY=0;entryDx=0;entryDy=0;" parent="1" source="lldGQx17l16skEtl4_07-2" target="lldGQx17l16skEtl4_07-4" edge="1">
                    <mxGeometry relative="1" as="geometry"/>
                </mxCell>
                <mxCell id="LsxEzGCyYxM6EnhoBOPR-6" style="edgeStyle=orthogonalEdgeStyle;curved=1;html=1;exitX=1;exitY=0.5;exitDx=0;exitDy=0;entryX=0.5;entryY=0;entryDx=0;entryDy=0;" parent="1" source="lldGQx17l16skEtl4_07-2" target="lldGQx17l16skEtl4_07-1" edge="1">
                    <mxGeometry relative="1" as="geometry"/>
                </mxCell>
                <mxCell id="lldGQx17l16skEtl4_07-2" value="Docker Compose Stack" style="whiteSpace=wrap;strokeWidth=2;" parent="1" vertex="1">
                    <mxGeometry x="641.5" y="380" width="222" height="54" as="geometry"/>
                </mxCell>
                <mxCell id="lldGQx17l16skEtl4_07-3" value="Neo4j" style="whiteSpace=wrap;strokeWidth=2;" parent="1" vertex="1">
                    <mxGeometry x="260" y="496" width="102" height="54" as="geometry"/>
                </mxCell>
                <mxCell id="lldGQx17l16skEtl4_07-4" value="Qdrand Vector Store" style="whiteSpace=wrap;strokeWidth=2;" parent="1" vertex="1">
                    <mxGeometry x="450" y="496" width="205" height="54" as="geometry"/>
                </mxCell>
                <mxCell id="_FaW_6tLodKSAcJBk_i1-1" value="Workflow Orchestrator" style="whiteSpace=wrap;strokeWidth=2;" parent="1" vertex="1">
                    <mxGeometry x="1643" y="270" width="223" height="54" as="geometry"/>
                </mxCell>
                <mxCell id="_FaW_6tLodKSAcJBk_i1-2" value="Process Definitions" style="whiteSpace=wrap;strokeWidth=2;" parent="1" vertex="1">
                    <mxGeometry x="1657" y="397" width="194" height="54" as="geometry"/>
                </mxCell>
                <mxCell id="_FaW_6tLodKSAcJBk_i1-3" value="Decision Analysis Process" style="whiteSpace=wrap;strokeWidth=2;" parent="1" vertex="1">
                    <mxGeometry x="1502" y="524" width="237" height="54" as="geometry"/>
                </mxCell>
                <mxCell id="_FaW_6tLodKSAcJBk_i1-4" value="Analysis ID" style="whiteSpace=wrap;strokeWidth=2;" parent="1" vertex="1">
                    <mxGeometry x="1270" y="663" width="136" height="54" as="geometry"/>
                </mxCell>
            </root>
        </mxGraphModel>
    </diagram>
</mxfile>